<svg xmlns="http://www.w3.org/2000/svg" viewBox="0 0 640 480">
  <defs>
    <linearGradient id="bg" x1="0" y1="0" x2="1" y2="1">
      <stop offset="0" stop-color="#f4f7ff" />
      <stop offset="1" stop-color="#e8eef9" />
    </linearGradient>
    <radialGradient id="good" cx="0.5" cy="0.5" r="0.5">
      <stop offset="0" stop-color="#d6efff" />
      <stop offset="1" stop-color="#a4c7ff" stop-opacity="0.35" />
    </radialGradient>
    <marker id="arrow" viewBox="0 0 10 10" refX="9" refY="5" markerWidth="6" markerHeight="6" orient="auto-start-reverse">
      <path d="M 0 0 L 10 5 L 0 10 z" fill="#5f7ea6" />
    </marker>
  </defs>
  <rect width="640" height="480" fill="url(#bg)" />
  <g transform="translate(320 240)">
    <circle r="210" fill="#fff" stroke="#9db7d6" stroke-dasharray="10 10" stroke-width="2" />
    <circle r="160" fill="#fff" stroke="#5f7ea6" stroke-dasharray="8 12" stroke-width="2" />
    <circle r="110" fill="url(#good)" stroke="#1a4f9c" stroke-width="3" />
    <circle r="58" fill="#1f7a50" fill-opacity="0.2" stroke="#1f7a50" stroke-width="2" />
    <g font-family="'Inter', 'Segoe UI', sans-serif" fill="#1a4f9c" font-size="18" text-anchor="middle">
      <text y="-198" font-size="20" font-weight="600">Critical coverage</text>
      <text y="-148" font-size="18">Outer search zone</text>
      <text y="-98" font-size="18">Inner search zone</text>
      <text y="-38" font-size="18" fill="#1f7a50">Good coverage</text>
    </g>
    <g font-family="'Inter', 'Segoe UI', sans-serif" fill="#203047" font-size="16">
      <text x="-240" y="-40" text-anchor="start">Event A2</text>
      <text x="-240" y="-18" text-anchor="start">Outer Search</text>
      <text x="-310" y="-110" text-anchor="start">Critical Coverage</text>
      <text x="-310" y="-88" text-anchor="start">Threshold</text>
      <text x="220" y="-30" text-anchor="end">Inner Search</text>
      <text x="220" y="-8" text-anchor="end">Threshold</text>
      <text x="70" y="-150" text-anchor="start">Outer Search</text>
      <text x="70" y="-128" text-anchor="start">Threshold</text>
      <text x="-140" y="30" text-anchor="start">Event A1</text>
      <text x="-140" y="52" text-anchor="start">Good Coverage</text>
      <text x="-140" y="74" text-anchor="start">Threshold</text>
    </g>
    <g fill="none" stroke="#5f7ea6" stroke-width="2" stroke-dasharray="6 6" marker-end="url(#arrow)">
      <path d="M -250 -60 Q -150 -150 -20 -120" />
      <path d="M -260 -30 Q -150 -60 -70 -20" />
      <path d="M -150 0 Q -60 -10 -10 -30" />
      <path d="M 210 -20 Q 140 -70 80 -70" />
      <path d="M 60 -160 Q 40 -140 20 -110" />
    </g>
  </g>
  <g font-family="'Inter', 'Segoe UI', sans-serif" fill="#203047" font-size="16" font-weight="600">
    <text x="40" y="430">Event A2</text>
    <text x="40" y="450">Outer Search</text>
  </g>
</svg>
